<?xml version="1.0" standalone="no"?>
<!DOCTYPE svg PUBLIC "-//W3C//DTD SVG 20010904//EN"
 "http://www.w3.org/TR/2001/REC-SVG-20010904/DTD/svg10.dtd">
<svg version="1.0" xmlns="http://www.w3.org/2000/svg"
 width="728.000000pt" height="414.000000pt" viewBox="0 0 728.000000 414.000000"
 preserveAspectRatio="xMidYMid meet">

<g transform="translate(0.000000,414.000000) scale(0.100000,-0.100000)"
fill="#000000" stroke="none">
<path d="M4289 3068 c-16 -29 -58 -71 -87 -87 -21 -11 -23 -17 -17 -52 6 -35
4 -40 -19 -49 -15 -5 -31 -22 -37 -37 -6 -15 -16 -31 -22 -35 -7 -4 -58 -8
-115 -8 -100 0 -103 -1 -112 -25 -8 -22 -15 -24 -81 -27 -60 -3 -74 -6 -83
-23 -16 -28 -27 -35 -61 -35 -45 0 -55 -16 -55 -87 0 -54 3 -64 23 -74 34 -18
37 -27 37 -131 0 -89 -2 -98 -19 -98 -28 0 -42 -24 -39 -66 2 -32 0 -39 -17
-42 -39 -7 -45 -29 -45 -172 0 -120 2 -139 18 -153 10 -10 23 -17 29 -17 15 0
22 -22 16 -54 -5 -22 1 -34 26 -56 23 -22 31 -37 31 -64 0 -26 5 -36 21 -41
11 -4 25 -18 31 -31 6 -13 19 -26 28 -29 9 -3 22 -17 28 -30 6 -14 18 -25 26
-25 9 0 21 -10 27 -22 16 -31 28 -38 66 -38 24 0 37 -7 49 -25 16 -25 17 -25
164 -25 147 0 149 0 168 25 17 22 28 25 80 25 42 0 65 5 77 16 39 40 1 51
-176 53 -121 1 -127 2 -142 24 -13 20 -27 25 -82 30 -54 5 -72 11 -91 32 -15
16 -34 25 -53 25 -24 0 -47 17 -123 93 -58 58 -103 112 -120 147 -26 50 -28
64 -28 169 0 103 2 117 21 137 11 12 25 41 30 64 5 23 19 50 29 59 40 33 52
213 16 233 -9 5 -14 13 -11 19 7 10 108 13 118 3 9 -9 -14 -56 -40 -81 -13
-12 -23 -34 -23 -48 0 -49 22 -113 46 -136 16 -15 24 -34 24 -55 0 -25 7 -38
30 -54 17 -12 30 -27 30 -34 0 -7 7 -21 15 -32 13 -16 16 -17 25 -4 16 24 11
59 -10 72 -13 9 -20 24 -20 45 0 17 -5 44 -10 59 -7 18 -8 36 -1 53 5 14 12
47 16 74 7 54 20 55 28 1 7 -42 23 -64 47 -64 9 0 22 -12 29 -26 6 -14 17 -24
23 -22 21 7 20 26 -3 47 -20 18 -22 30 -21 93 2 97 -24 124 -74 77 l-21 -20
-16 38 c-25 60 -39 73 -97 86 -78 18 -75 41 6 45 53 2 63 0 88 -23 31 -29 80
-33 112 -10 29 20 34 11 34 -56 0 -86 11 -107 65 -121 27 -7 52 -22 60 -35 9
-13 22 -23 30 -23 9 0 21 -11 27 -25 6 -13 20 -28 32 -31 11 -4 28 -17 38 -29
9 -12 31 -25 49 -29 17 -3 44 -17 61 -31 16 -14 39 -25 50 -25 11 0 33 -11 49
-24 20 -17 47 -26 86 -31 32 -3 65 -7 73 -8 9 -1 16 -15 18 -36 2 -19 12 -45
22 -59 29 -37 16 -49 -60 -55 -119 -10 -140 -38 -40 -53 62 -9 77 -19 85 -56
4 -18 14 -42 21 -53 20 -28 18 -35 -22 -80 l-35 -40 -28 34 -28 34 -92 -6
c-51 -4 -104 -13 -119 -21 l-27 -14 28 -11 c16 -6 39 -11 52 -11 49 0 72 -17
89 -67 23 -63 24 -84 6 -93 -8 -4 -28 -13 -44 -21 -35 -17 -43 -35 -19 -41 21
-6 47 -76 34 -92 -19 -23 -23 -77 -8 -99 23 -35 74 -87 85 -87 6 0 18 -8 28
-17 16 -16 22 -16 108 6 152 38 156 39 156 68 0 14 -5 43 -11 64 -10 32 -9 42
5 63 9 14 16 32 16 41 0 8 1 15 3 15 1 0 17 4 35 9 30 9 34 8 42 -15 13 -33
68 -80 130 -111 l51 -25 90 23 90 23 22 47 c18 42 27 49 63 58 49 12 121 2
158 -23 14 -9 37 -16 51 -16 22 0 25 -4 25 -39 0 -55 8 -71 36 -71 17 0 24 -6
24 -20 0 -16 7 -20 30 -20 25 0 30 -4 30 -25 0 -20 5 -25 25 -25 18 0 25 -5
25 -20 0 -17 7 -20 49 -20 47 0 50 -2 53 -27 2 -16 6 -27 11 -25 4 1 39 2 78
2 l71 0 -7 27 c-4 16 -8 29 -9 31 -7 6 -84 5 -113 -3 -31 -7 -33 -6 -33 17 0
23 -5 26 -50 32 -41 5 -50 10 -50 26 0 13 -7 20 -20 20 -11 0 -20 7 -20 15 0
8 -12 17 -27 21 -48 10 -53 13 -53 29 0 9 5 25 10 35 7 13 7 21 0 25 -5 3 -10
14 -10 24 0 13 13 22 46 31 50 14 49 9 28 103 -6 24 -2 29 30 42 20 9 42 27
48 40 8 19 18 25 37 23 14 -2 26 2 27 7 3 32 26 65 44 65 17 0 20 7 22 48 1
26 1 61 0 79 -1 28 2 32 26 35 40 4 35 32 -7 38 -30 4 -35 10 -47 50 -8 25
-11 52 -8 62 7 23 -10 30 -41 16 -30 -13 -45 -1 -45 39 0 19 8 23 75 34 73 11
75 12 75 40 0 24 4 29 25 29 15 0 25 6 25 14 0 22 120 33 135 13 7 -9 30 -17
59 -19 40 -2 50 1 60 17 6 11 12 22 13 24 2 2 12 -4 22 -13 25 -23 55 -17 59
10 2 15 13 24 34 28 56 11 68 8 68 -19 0 -20 5 -25 25 -25 23 0 25 -4 25 -45
0 -33 -4 -45 -15 -45 -8 0 -15 7 -15 15 0 10 -10 15 -32 15 -18 0 -43 3 -55 6
-20 6 -23 3 -23 -25 0 -31 1 -31 50 -31 43 0 50 -3 50 -20 0 -15 7 -20 24 -20
18 0 26 -6 28 -22 2 -14 12 -24 28 -28 16 -4 26 -14 28 -28 2 -16 10 -22 27
-22 21 0 24 -5 27 -47 3 -45 4 -48 30 -45 33 3 34 -5 43 -185 l6 -123 -30 0
c-26 0 -31 4 -31 25 0 18 -5 25 -20 25 -15 0 -20 -7 -20 -25 0 -18 5 -25 20
-25 13 0 22 -9 26 -25 4 -18 13 -25 29 -25 23 0 35 -22 35 -66 0 -17 -9 -22
-47 -30 l-48 -9 -1 -75 c-1 -68 -3 -75 -23 -78 -15 -2 -21 -11 -21 -28 0 -21
-4 -24 -37 -24 -21 0 -55 -3 -75 -6 -33 -6 -38 -10 -38 -34 l0 -28 -127 -7
c-251 -15 -268 -17 -271 -42 -4 -28 -16 -27 221 -11 173 11 177 12 177 33 0
27 22 35 98 35 51 0 52 1 52 29 0 27 3 30 50 36 l51 7 -7 74 -7 74 52 0 52 0
-3 72 c-3 68 -5 73 -28 78 -35 8 -39 45 -7 54 24 6 25 8 21 78 -2 40 -6 107
-9 149 l-6 77 27 6 c23 6 26 10 20 38 -3 17 -6 37 -6 44 0 8 -10 14 -25 14
-23 0 -25 3 -25 50 0 46 -2 50 -24 50 -18 0 -25 6 -28 23 -3 20 -9 22 -58 22
l-55 0 -3 53 c-3 48 -5 52 -28 52 -17 0 -24 5 -24 20 0 15 -7 20 -25 20 -18 0
-25 5 -25 19 0 11 -4 22 -8 25 -5 3 -50 2 -100 -1 -87 -6 -92 -7 -92 -28 0
-25 -22 -35 -77 -35 -25 0 -32 5 -35 23 -3 20 -8 22 -62 22 l-59 0 -14 53
c-12 46 -26 65 -101 141 -59 60 -108 99 -149 120 -34 17 -65 37 -70 44 -11 17
-59 47 -76 47 -8 0 -22 9 -33 21 -70 77 -132 54 -190 -71 -59 -127 -81 -155
-113 -145 -11 3 -23 15 -26 26 -4 10 -10 19 -15 19 -4 0 -33 25 -63 55 -42 42
-61 55 -85 55 -21 0 -35 7 -46 25 -13 20 -25 25 -56 25 -34 0 -42 4 -50 25 -8
21 -16 25 -49 25 -32 0 -43 5 -52 23 -16 30 -28 37 -65 37 -23 0 -36 7 -48 25
-13 19 -25 25 -55 25 -31 0 -40 5 -49 25 -10 21 -19 25 -52 25 -34 0 -42 4
-50 25 -8 21 -16 25 -49 25 -33 0 -43 5 -61 30 -20 28 -26 30 -80 30 -51 0
-61 -3 -71 -22z m106 -48 c6 -10 -138 -160 -155 -160 -8 0 -10 -47 -8 -160 3
-152 4 -160 26 -175 12 -9 22 -22 22 -28 0 -15 84 -97 99 -97 6 0 18 -11 27
-25 14 -22 23 -25 75 -25 54 0 60 -3 81 -31 l23 -30 140 7 c114 5 151 11 197
30 32 13 62 24 68 24 11 0 76 64 120 119 14 17 33 39 43 49 10 9 25 32 33 51
16 38 24 34 44 -19 24 -63 46 -75 77 -45 8 9 18 14 21 11 9 -9 -20 -36 -39
-36 -10 0 -21 -4 -24 -10 -10 -17 -25 -11 -25 10 0 30 -38 26 -46 -5 -3 -13
-12 -29 -20 -36 -9 -7 -11 -20 -8 -36 6 -24 0 -34 -54 -86 -7 -6 -18 -18 -25
-25 -22 -23 -32 -32 -52 -47 -19 -14 -18 -14 13 -15 20 0 35 6 38 15 4 8 12
15 19 15 8 0 17 9 20 20 3 11 12 20 20 20 8 0 11 7 8 20 -5 19 11 28 21 12 6
-10 -30 -86 -49 -102 -21 -17 -19 -43 6 -65 16 -16 19 -26 14 -60 -4 -22 -14
-51 -24 -65 -10 -14 -20 -33 -24 -42 -9 -25 -29 -22 -56 6 -12 13 -36 27 -53
30 -17 3 -36 14 -43 23 -7 10 -32 19 -61 22 -37 5 -50 10 -52 25 -6 27 15 36
81 36 46 0 59 4 63 18 3 9 9 24 14 33 6 11 2 21 -11 33 -24 20 -52 20 -111 -1
-47 -16 -47 -16 -85 9 -33 22 -52 27 -147 32 -91 5 -113 9 -131 26 -12 12 -39
24 -60 27 -24 4 -39 12 -42 24 -3 11 -19 20 -44 24 -22 4 -45 14 -52 22 -7 8
-24 26 -39 40 -16 15 -28 32 -28 40 0 7 -10 23 -21 34 -32 32 -38 76 -30 221
6 105 10 133 24 143 9 7 17 20 17 29 0 37 60 114 100 129 25 9 58 8 65 -3z
m-6 -258 c7 -13 6 -23 -1 -30 -28 -28 -63 3 -38 33 16 20 27 19 39 -3z m-359
-38 c5 -5 7 -20 3 -32 -4 -17 -10 -21 -22 -15 -9 4 -38 7 -66 8 -48 0 -50 1
-53 29 l-4 28 66 -4 c36 -2 70 -8 76 -14z m776 -120 c8 -32 -14 -50 -34 -30
-11 11 -11 18 -3 35 16 28 29 26 37 -5z m991 -9 c45 0 46 -1 57 -39 10 -36 17
-42 61 -57 83 -28 98 -84 35 -124 -29 -18 -40 -32 -40 -50 0 -21 -5 -25 -32
-25 -17 0 -54 -7 -82 -15 -28 -8 -80 -22 -115 -32 -53 -15 -68 -24 -84 -50
-10 -18 -23 -33 -27 -33 -5 0 -10 -14 -12 -32 -3 -30 -6 -33 -68 -49 -36 -9
-85 -22 -109 -28 l-43 -12 7 -45 c7 -48 2 -53 -27 -28 -14 14 -20 14 -33 4 -8
-7 -15 -21 -15 -32 0 -10 -6 -21 -14 -24 -8 -3 -17 -17 -20 -30 -4 -16 -19
-31 -41 -40 -25 -10 -37 -23 -43 -47 -7 -27 -12 -32 -35 -29 -23 3 -30 -2 -42
-32 -9 -20 -20 -36 -25 -36 -20 0 -10 -50 11 -58 19 -7 19 -9 5 -21 -9 -8 -16
-21 -16 -31 0 -10 -7 -23 -15 -30 -8 -7 -15 -19 -15 -27 0 -22 -25 -10 -28 14
-2 11 4 26 13 33 19 16 20 50 0 50 -8 0 -18 1 -22 1 -4 1 -15 -11 -23 -27 -9
-16 -29 -31 -46 -36 -18 -5 -34 -18 -42 -35 -6 -15 -21 -41 -32 -58 -11 -16
-27 -44 -35 -62 -8 -17 -19 -34 -25 -38 -5 -3 -10 -15 -10 -26 0 -23 -45 -27
-54 -4 -3 8 -13 15 -22 15 -8 0 -23 9 -33 21 -15 19 -21 20 -56 10 -21 -6 -41
-9 -43 -6 -2 2 -7 24 -9 50 -5 37 -3 45 11 45 9 0 25 -9 37 -21 22 -22 35 -17
41 16 2 14 13 21 38 25 25 4 38 12 48 33 7 15 17 27 22 27 4 0 31 23 59 50 28
28 55 50 60 50 6 0 11 15 13 33 3 27 7 32 33 35 36 4 55 19 55 42 0 10 7 23
15 30 8 7 15 20 15 30 0 12 11 20 35 24 28 6 38 14 49 41 8 18 20 33 28 32 35
-1 47 5 54 26 11 35 65 76 101 77 43 0 63 9 56 26 -4 10 -10 11 -23 4 -26 -14
-37 -12 -44 6 -4 10 1 25 10 35 12 13 15 29 11 54 -4 22 -1 40 7 48 7 7 17 23
20 35 9 26 21 28 34 6 10 -17 68 -16 65 1 -1 6 -5 27 -8 49 l-8 39 34 -6 c33
-6 35 -4 62 51 29 60 34 87 17 97 -5 3 -10 15 -10 27 0 18 4 19 35 14 31 -6
36 -4 47 19 10 22 16 24 44 19 29 -5 34 -3 48 24 18 35 55 46 74 23 7 -9 30
-15 59 -16z m-1667 -16 c0 -20 -4 -29 -12 -27 -15 5 -22 33 -14 54 9 24 26 6
26 -27z m519 -83 c9 -10 8 -16 -4 -26 -19 -15 -47 3 -38 26 7 18 27 18 42 0z
m279 2 c8 -8 9 -15 1 -25 -15 -17 -55 -17 -62 1 -11 29 37 48 61 24z m1102
-183 c0 -10 -10 -15 -26 -15 -22 0 -25 2 -14 15 7 8 19 15 26 15 8 0 14 -7 14
-15z m-50 -54 c0 -11 -39 -25 -47 -18 -3 3 -2 10 2 16 8 13 45 15 45 2z m-150
-55 c0 -22 -6 -26 -45 -32 -39 -5 -45 -10 -45 -30 0 -19 -5 -24 -25 -24 -20 0
-25 -5 -25 -25 0 -20 -5 -25 -25 -25 -20 0 -25 -5 -25 -24 0 -17 -7 -26 -26
-30 -31 -8 -30 -8 -39 26 -5 20 -1 32 16 49 13 13 23 34 24 47 0 20 8 27 43
37 23 7 48 18 55 23 13 11 73 30 100 31 12 1 17 -6 17 -23z m760 -51 c0 -8 -7
-15 -15 -15 -8 0 -15 7 -15 15 0 8 7 15 15 15 8 0 15 -7 15 -15z m120 -29 c0
-61 -31 -102 -43 -56 -3 11 -13 23 -24 27 -29 11 -34 27 -10 35 40 11 77 9 77
-6z m-825 -68 c2 -7 6 -35 8 -61 5 -48 5 -49 -22 -42 -14 3 -30 12 -36 19 -16
20 -43 26 -55 11 -9 -11 -7 -18 9 -34 17 -17 18 -21 5 -32 -8 -6 -14 -24 -14
-40 0 -25 -4 -29 -29 -29 -25 0 -30 -5 -35 -35 -10 -52 -41 -48 -66 9 -10 24
-24 46 -32 49 -9 4 -3 14 20 34 31 27 49 52 71 100 13 27 25 34 86 49 66 16
85 17 90 2z m-1006 -52 c8 -6 22 -24 32 -40 l17 -29 -35 -33 c-19 -19 -39 -32
-43 -29 -4 3 -13 25 -19 50 -6 25 -18 48 -26 51 -8 4 -15 17 -15 31 0 22 3 23
38 17 20 -4 43 -12 51 -18z m627 -1 c4 -8 12 -15 18 -15 29 0 48 -25 40 -54
-6 -25 -10 -27 -37 -22 -38 8 -67 -16 -67 -56 0 -21 5 -28 19 -28 26 0 36 -17
20 -36 -10 -13 -14 -13 -29 1 -9 8 -24 15 -32 15 -22 0 -35 19 -49 73 -11 44
-10 50 10 71 11 12 21 27 21 34 0 28 76 44 86 17z m1244 -22 c0 -28 -3 -34
-10 -23 -13 20 -13 60 0 60 6 0 10 -17 10 -37z m-879 -103 c7 -53 -38 -110
-86 -110 -19 0 -19 4 0 41 9 16 27 34 40 39 20 7 25 17 25 42 0 37 17 27 21
-12z m-354 -12 c-3 -8 -6 -5 -6 6 -1 11 2 17 5 13 3 -3 4 -12 1 -19z m-537 3
c0 -6 -4 -13 -10 -16 -5 -3 -10 1 -10 9 0 9 5 16 10 16 6 0 10 -4 10 -9z m-50
-50 c0 -6 -4 -13 -10 -16 -5 -3 -10 1 -10 9 0 9 5 16 10 16 6 0 10 -4 10 -9z
m-87 -42 c33 -9 36 -12 26 -31 -8 -15 -14 -17 -22 -9 -6 6 -18 11 -26 11 -24
0 -44 16 -37 29 9 13 12 14 59 0z m927 -49 c0 -5 -4 -10 -10 -10 -5 0 -10 5
-10 10 0 6 5 10 10 10 6 0 10 -4 10 -10z m-1064 -8 c23 -15 26 -54 9 -93 -14
-30 -25 -40 -51 -45 -55 -10 -77 22 -30 44 18 8 27 22 32 49 10 55 16 62 40
45z m833 -16 c20 -21 27 -22 68 -15 26 5 48 8 50 6 1 -2 -5 -19 -15 -39 -17
-33 -20 -34 -30 -17 -13 20 -38 24 -61 10 -12 -8 -13 -14 -3 -36 9 -20 19 -26
40 -24 15 1 35 -1 45 -5 9 -3 24 -8 32 -11 20 -6 19 -21 -2 -29 -10 -4 -22 -1
-28 6 -7 9 -28 12 -65 10 l-55 -4 4 52 c3 49 2 52 -20 48 -19 -2 -25 -11 -30
-41 -3 -20 -9 -40 -12 -43 -14 -15 -37 8 -47 46 -18 67 -11 82 40 96 63 17 64
17 89 -10z m-358 -172 c18 -22 1 -46 -40 -58 -58 -17 -84 41 -29 64 34 13 54
12 69 -6z m-621 -174 c0 -11 -7 -20 -15 -20 -8 0 -15 9 -15 20 0 11 7 20 15
20 8 0 15 -9 15 -20z m117 -16 c6 -16 -12 -34 -34 -34 -16 0 -17 22 -1 38 16
16 27 15 35 -4z m141 -22 c4 -24 -7 -29 -26 -10 -18 18 -15 40 6 36 9 -2 18
-13 20 -26z m-88 -11 c0 -11 -5 -23 -11 -27 -15 -9 -33 12 -26 30 9 23 37 20
37 -3z m-95 -21 c10 -16 -16 -43 -28 -31 -11 11 -2 41 12 41 5 0 13 -5 16 -10z"/>
<path d="M5798 2443 c-20 -5 -24 -23 -5 -23 17 0 41 17 31 22 -5 2 -17 3 -26
1z"/>
<path d="M5450 2313 c0 -4 5 -15 10 -23 8 -13 10 -13 10 2 0 9 -4 20 -10 23
-5 3 -10 3 -10 -2z"/>
<path d="M5420 2229 c0 -5 5 -7 10 -4 6 3 10 8 10 11 0 2 -4 4 -10 4 -5 0 -10
-5 -10 -11z"/>
<path d="M5503 2214 c-6 -16 15 -37 28 -28 10 6 -1 44 -12 44 -6 0 -12 -7 -16
-16z"/>
<path d="M930 2735 c0 -20 -5 -25 -25 -25 -29 0 -40 -19 -31 -55 4 -16 13 -25
25 -25 21 0 31 19 31 56 l0 24 245 0 c235 0 245 -1 245 -19 0 -42 10 -51 61
-51 42 0 49 3 49 20 0 16 -7 20 -35 20 -22 0 -38 6 -41 15 -4 8 -10 15 -16 15
-5 0 -16 7 -24 15 -13 12 -49 15 -195 15 -113 0 -179 4 -179 10 0 6 -25 10
-55 10 -52 0 -55 -1 -55 -25z"/>
<path d="M1017 2643 c-4 -3 -7 -21 -7 -40 l0 -33 -59 0 c-57 0 -61 -2 -110
-49 -28 -27 -51 -57 -51 -66 0 -10 -11 -28 -25 -41 -23 -21 -25 -30 -25 -109
0 -79 1 -85 20 -85 11 0 23 -7 26 -15 4 -8 12 -15 20 -15 8 0 14 -7 14 -15 0
-10 10 -15 30 -15 20 0 30 -5 30 -15 0 -12 18 -15 105 -15 87 0 105 3 105 15
0 8 7 15 15 15 8 0 15 7 15 15 0 8 9 15 20 15 29 0 58 34 62 72 l3 33 65 3
c44 2 67 8 73 18 6 11 33 14 123 14 139 0 144 3 144 89 0 53 -3 63 -31 90 -17
17 -35 31 -40 31 -5 0 -9 7 -9 15 0 12 -17 15 -95 15 -92 0 -95 1 -95 23 0 48
-28 57 -178 57 -76 0 -142 -3 -145 -7z m133 -97 c0 -19 6 -25 28 -28 l27 -3 0
-95 c0 -78 -3 -95 -15 -95 -11 0 -16 14 -18 53 -2 28 -7 52 -13 52 -5 0 -9 13
-9 29 0 43 -35 81 -75 81 -33 0 -51 11 -38 24 3 3 30 6 60 6 50 0 53 -2 53
-24z"/>
<path d="M820 2600 c0 -28 -2 -30 -40 -30 -36 0 -40 -3 -40 -24 0 -19 -6 -25
-27 -28 -25 -3 -28 -7 -31 -45 -3 -43 -3 -43 -43 -43 l-39 0 0 -135 0 -135 40
0 40 0 0 -55 c0 -54 0 -55 30 -55 29 0 30 -2 30 -45 l0 -45 40 0 c36 0 40 -2
40 -25 0 -20 5 -25 25 -25 24 0 25 -2 25 -70 0 -68 -1 -70 -25 -70 -22 0 -25
-4 -25 -40 0 -40 0 -40 -39 -40 -36 0 -40 -3 -43 -27 -3 -27 -5 -28 -70 -31
-64 -3 -68 -4 -68 -27 0 -18 -6 -24 -27 -27 -24 -3 -28 -8 -31 -40 -3 -30 -7
-38 -23 -38 -11 0 -22 -7 -25 -15 -4 -8 -12 -15 -20 -15 -11 0 -14 -29 -14
-155 l0 -155 40 0 c36 0 40 -2 40 -25 l0 -25 175 0 c162 0 177 2 195 20 11 11
20 22 20 25 0 3 -88 5 -195 5 l-195 0 0 171 0 170 28 -3 c21 -2 28 -9 30 -30
2 -20 -1 -28 -12 -28 -12 0 -16 -10 -16 -40 0 -29 4 -40 15 -40 8 0 15 -7 15
-15 0 -8 7 -15 15 -15 8 0 15 -7 15 -15 0 -8 7 -15 15 -15 8 0 15 -4 15 -10 0
-6 50 -10 130 -10 80 0 130 4 130 10 0 6 14 10 30 10 20 0 30 5 30 15 0 11 11
15 39 15 25 0 41 5 45 15 3 8 17 15 31 15 16 0 25 6 25 15 0 9 9 15 25 15 14
0 25 5 25 10 0 6 11 10 25 10 14 0 28 7 31 15 4 8 17 15 30 15 15 0 24 6 24
15 0 8 4 15 10 15 12 0 100 88 100 100 0 6 4 10 9 10 13 0 101 87 101 100 0 5
7 10 15 10 8 0 15 7 15 15 0 8 4 15 10 15 13 0 70 57 70 70 0 5 7 10 15 10 8
0 15 7 15 15 0 8 5 15 10 15 17 0 50 39 50 60 0 11 5 20 10 20 6 0 10 33 10
80 0 62 3 82 15 86 12 5 15 24 15 85 l0 79 -40 0 c-36 0 -40 3 -40 25 l0 25
-160 0 -160 0 0 -25 c0 -21 -5 -25 -30 -25 -28 0 -30 -2 -30 -40 l0 -39 -67
-3 c-66 -3 -68 -4 -71 -30 l-3 -28 -135 0 -134 0 0 -25 c0 -20 5 -25 25 -25
23 0 25 -4 25 -45 0 -25 5 -45 10 -45 6 0 10 -11 10 -25 0 -22 -4 -25 -40 -25
-36 0 -40 3 -40 25 0 20 -5 25 -24 25 -22 0 -25 5 -28 43 -3 41 -4 42 -40 45
l-37 3 -3 52 c-3 48 -5 52 -30 55 l-28 3 0 134 0 134 28 3 c24 3 27 7 30 46 3
42 3 42 43 42 35 0 39 3 39 25 0 20 5 25 25 25 21 0 25 5 25 30 0 25 -4 30
-25 30 -21 0 -25 -5 -25 -30z"/>
<path d="M1534 2616 c-12 -31 4 -46 46 -46 36 0 40 -2 40 -25 0 -20 5 -25 24
-25 22 0 25 -5 28 -42 3 -42 4 -43 41 -46 l37 -3 0 -65 0 -64 30 0 30 0 0
-234 0 -235 -27 -3 c-22 -2 -29 -9 -31 -30 -3 -25 -7 -28 -43 -28 -39 0 -39 0
-39 -40 0 -36 -2 -40 -25 -40 -21 0 -25 -5 -25 -29 0 -28 -3 -30 -42 -33 -36
-2 -44 -7 -46 -25 -3 -17 -10 -23 -28 -23 -21 0 -24 -4 -24 -40 0 -22 5 -40
11 -40 19 0 39 28 39 54 0 24 3 26 45 26 41 0 45 2 45 25 0 20 5 25 25 25 21
0 25 5 25 30 0 28 2 30 40 30 l40 0 0 40 c0 38 2 40 30 40 27 0 30 3 30 30 0
28 2 30 40 30 l40 0 0 235 0 235 -40 0 -40 0 0 65 0 65 -30 0 c-29 0 -30 2
-30 45 l0 45 -40 0 c-36 0 -40 3 -40 25 0 20 -5 25 -24 25 -19 0 -25 6 -28 28
-3 23 -8 27 -41 30 -26 2 -39 -1 -43 -12z"/>
<path d="M2450 2345 c0 -3 41 -75 91 -160 l90 -154 -95 -161 -95 -161 77 3 77
3 56 103 c31 57 60 104 64 104 4 0 33 -47 64 -104 l56 -103 77 -3 77 -3 -95
161 -95 161 90 154 c50 85 91 156 91 159 0 3 -33 6 -72 6 l-73 0 -55 -106
c-30 -58 -58 -107 -62 -110 -4 -2 -33 45 -65 106 l-58 110 -72 0 c-40 0 -73
-2 -73 -5z"/>
<path d="M6100 2105 c0 -40 2 -45 23 -45 20 0 22 4 19 45 -3 36 -8 45 -23 45
-16 0 -19 -7 -19 -45z"/>
<path d="M4258 2103 c6 -2 18 -2 25 0 6 3 1 5 -13 5 -14 0 -19 -2 -12 -5z"/>
<path d="M6057 2043 c-4 -3 -7 -17 -7 -31 0 -18 4 -23 16 -18 9 3 20 6 25 6 5
0 9 11 9 25 0 18 -5 25 -18 25 -10 0 -22 -3 -25 -7z"/>
<path d="M6093 1843 c-34 -4 -38 -10 -27 -37 5 -12 20 -16 59 -16 69 0 85 7
85 36 0 22 -4 24 -42 22 -24 0 -58 -3 -75 -5z"/>
<path d="M4218 1823 c18 -2 45 -2 60 0 15 2 0 4 -33 4 -33 0 -45 -2 -27 -4z"/>
<path d="M6310 1801 c-32 -4 -46 -11 -48 -23 -3 -15 5 -18 52 -18 53 0 56 1
56 25 0 14 -3 24 -7 23 -5 0 -28 -4 -53 -7z"/>
<path d="M5968 1758 c-2 -14 -12 -24 -28 -28 -23 -5 -43 -40 -23 -40 4 0 52
-1 106 -3 54 -2 101 1 103 5 3 4 16 8 30 8 17 0 24 5 24 20 0 18 -7 20 -55 20
-48 0 -55 2 -55 20 0 17 -7 20 -49 20 -44 0 -50 -3 -53 -22z"/>
<path d="M6448 1762 c-65 -3 -68 -4 -68 -27 0 -20 5 -25 25 -25 18 0 25 -5 25
-20 0 -15 7 -20 25 -20 20 0 25 5 25 25 0 20 5 25 25 25 18 0 25 5 25 19 0 26
-3 27 -82 23z"/>
<path d="M6539 1716 c-2 -3 -3 -25 -1 -50 3 -37 8 -46 23 -46 14 0 19 7 19 30
0 25 4 30 25 30 18 0 25 5 25 20 0 17 -7 20 -43 20 -24 0 -46 -2 -48 -4z"/>
<path d="M6230 1681 c0 -17 6 -21 31 -21 24 0 30 4 27 18 -2 10 -14 18 -31 20
-22 3 -27 -1 -27 -17z"/>
<path d="M6340 1635 c0 -23 4 -26 28 -23 19 2 27 9 27 23 0 14 -8 21 -27 23
-24 3 -28 0 -28 -23z"/>
<path d="M6440 1586 c0 -18 -6 -25 -22 -28 -15 -2 -24 -11 -26 -26 -3 -20 0
-23 20 -20 15 2 24 11 26 26 2 13 10 22 21 22 22 0 45 25 36 40 -3 5 -17 10
-31 10 -19 0 -24 -5 -24 -24z"/>
<path d="M6600 1496 c0 -18 -6 -25 -22 -28 -15 -2 -24 -11 -26 -25 -3 -19 1
-23 22 -23 21 0 26 5 26 24 0 15 7 26 20 29 12 3 20 14 20 26 0 14 -6 21 -20
21 -15 0 -20 -7 -20 -24z"/>
<path d="M1420 1465 c0 -22 -4 -25 -40 -25 l-40 0 0 -40 c0 -38 2 -40 30 -40
20 0 30 5 30 15 0 8 5 15 10 15 6 0 10 11 10 25 0 21 5 25 30 25 25 0 30 4 30
25 0 21 -5 25 -30 25 -25 0 -30 -4 -30 -25z"/>
<path d="M1204 1345 c-11 -28 4 -45 38 -45 32 0 68 27 68 50 0 17 -100 12
-106 -5z"/>
<path d="M1070 1260 l0 -40 -70 0 c-68 0 -70 -1 -70 -25 0 -19 6 -25 33 -30
18 -4 49 -5 68 -3 29 2 34 7 37 31 3 23 8 27 37 27 20 0 35 6 39 15 3 8 12 15
21 15 9 0 15 9 15 25 0 24 -3 25 -55 25 l-55 0 0 -40z"/>
</g>
</svg>
